<?xml version="1.0" encoding="UTF-8"?>
<svg version="1.1" xmlns="http://www.w3.org/2000/svg" width="225" height="225">
<path d="M0 0 C74.25 0 148.5 0 225 0 C225 74.25 225 148.5 225 225 C150.75 225 76.5 225 0 225 C0 150.75 0 76.5 0 0 Z " fill="#FDFDFD" transform="translate(0,0)"/>
<path d="M0 0 C16.82127817 16.3532557 20.26246608 34.72286317 20.62109375 57.31640625 C20.62436471 60.08691068 20.60971684 62.85494552 20.5625 65.625 C19.9025 65.295 19.2425 64.965 18.5625 64.625 C18.5625 63.635 18.5625 62.645 18.5625 61.625 C17.9025 61.625 17.2425 61.625 16.5625 61.625 C16.46066406 62.49511719 16.35882813 63.36523438 16.25390625 64.26171875 C13.73192958 76.52963917 3.41492818 87.32623799 -6.72265625 94.05859375 C-21.53617657 102.60567526 -38.12659926 105.18982743 -54.875 101.5625 C-72.46364446 96.228849 -83.57354595 85.08707118 -92.4375 69.625 C-93.45651861 67.63462288 -94.46323685 65.63766274 -95.4375 63.625 C-96.4275 64.12 -96.4275 64.12 -97.4375 64.625 C-97.40269531 64.03332031 -97.36789063 63.44164062 -97.33203125 62.83203125 C-97.20660897 59.1708953 -97.30117882 56.10212413 -98.3125 52.5625 C-100.96651759 50.14266043 -102.10405831 50.33242046 -105.625 50.3125 C-107.23053374 50.39289153 -108.83565374 50.4897597 -110.4375 50.625 C-108.03313974 54.23154039 -106.49070393 54.47952932 -102.4375 55.625 C-102.7675 56.615 -103.0975 57.605 -103.4375 58.625 C-103.4375 57.965 -103.4375 57.305 -103.4375 56.625 C-104.0975 56.625 -104.7575 56.625 -105.4375 56.625 C-105.4375 58.935 -105.4375 61.245 -105.4375 63.625 C-106.0975 62.965 -106.7575 62.305 -107.4375 61.625 C-107.4375 60.635 -107.4375 59.645 -107.4375 58.625 C-108.200625 59.12 -108.96375 59.615 -109.75 60.125 C-112.4375 61.625 -112.4375 61.625 -115.4375 61.625 C-115.1075 62.945 -114.7775 64.265 -114.4375 65.625 C-117.77274284 62.92504151 -119.00101308 59.59244005 -120.4375 55.625 C-120.625 52.6875 -120.625 52.6875 -120.4375 50.625 C-120.0353125 51.49125 -120.0353125 51.49125 -119.625 52.375 C-117.66806191 56.0828827 -116.50811787 58.26812738 -112.4375 59.625 C-113.0975 57.975 -113.7575 56.325 -114.4375 54.625 C-112.4575 55.615 -110.4775 56.605 -108.4375 57.625 C-109.0975 56.903125 -109.7575 56.18125 -110.4375 55.4375 C-112.4375 52.625 -112.4375 52.625 -112.4375 47.625 C-108.4775 47.955 -104.5175 48.285 -100.4375 48.625 C-100.1075 47.635 -99.7775 46.645 -99.4375 45.625 C-99.1075 46.615 -98.7775 47.605 -98.4375 48.625 C-98.35113281 47.39265625 -98.26476562 46.1603125 -98.17578125 44.890625 C-96.75206889 27.19719342 -91.2521181 12.2940039 -78.08984375 -0.23828125 C-55.10513971 -18.75467758 -22.77545842 -19.76868318 0 0 Z " fill="#FBFBFB" transform="translate(151.4375,65.375)"/>
<path d="M0 0 C16.82127817 16.3532557 20.26246608 34.72286317 20.62109375 57.31640625 C20.62436471 60.08691068 20.60971684 62.85494552 20.5625 65.625 C19.9025 65.295 19.2425 64.965 18.5625 64.625 C18.5625 63.635 18.5625 62.645 18.5625 61.625 C17.9025 61.625 17.2425 61.625 16.5625 61.625 C16.46066406 62.49511719 16.35882813 63.36523438 16.25390625 64.26171875 C13.73192958 76.52963917 3.41492818 87.32623799 -6.72265625 94.05859375 C-21.53617657 102.60567526 -38.12659926 105.18982743 -54.875 101.5625 C-72.46364446 96.228849 -83.57354595 85.08707118 -92.4375 69.625 C-93.45651861 67.63462288 -94.46323685 65.63766274 -95.4375 63.625 C-96.4275 64.12 -96.4275 64.12 -97.4375 64.625 C-97.40269531 64.03332031 -97.36789063 63.44164062 -97.33203125 62.83203125 C-97.20660897 59.1708953 -97.30117882 56.10212413 -98.3125 52.5625 C-100.96651759 50.14266043 -102.10405831 50.33242046 -105.625 50.3125 C-107.23053374 50.39289153 -108.83565374 50.4897597 -110.4375 50.625 C-108.03313974 54.23154039 -106.49070393 54.47952932 -102.4375 55.625 C-102.7675 56.615 -103.0975 57.605 -103.4375 58.625 C-103.4375 57.965 -103.4375 57.305 -103.4375 56.625 C-104.0975 56.625 -104.7575 56.625 -105.4375 56.625 C-105.4375 58.935 -105.4375 61.245 -105.4375 63.625 C-106.0975 62.965 -106.7575 62.305 -107.4375 61.625 C-107.4375 60.635 -107.4375 59.645 -107.4375 58.625 C-108.200625 59.12 -108.96375 59.615 -109.75 60.125 C-112.4375 61.625 -112.4375 61.625 -115.4375 61.625 C-115.1075 62.945 -114.7775 64.265 -114.4375 65.625 C-117.77274284 62.92504151 -119.00101308 59.59244005 -120.4375 55.625 C-120.625 52.6875 -120.625 52.6875 -120.4375 50.625 C-120.0353125 51.49125 -120.0353125 51.49125 -119.625 52.375 C-117.66806191 56.0828827 -116.50811787 58.26812738 -112.4375 59.625 C-113.0975 57.975 -113.7575 56.325 -114.4375 54.625 C-112.4575 55.615 -110.4775 56.605 -108.4375 57.625 C-109.0975 56.903125 -109.7575 56.18125 -110.4375 55.4375 C-112.4375 52.625 -112.4375 52.625 -112.4375 47.625 C-108.4775 47.955 -104.5175 48.285 -100.4375 48.625 C-100.1075 47.635 -99.7775 46.645 -99.4375 45.625 C-99.1075 46.615 -98.7775 47.605 -98.4375 48.625 C-98.35113281 47.39265625 -98.26476562 46.1603125 -98.17578125 44.890625 C-96.75206889 27.19719342 -91.2521181 12.2940039 -78.08984375 -0.23828125 C-55.10513971 -18.75467758 -22.77545842 -19.76868318 0 0 Z M-79.4375 6.625 C-90.76416142 21.31804191 -95.05178028 35.15367011 -93.4375 53.625 C-91.0537674 66.89967857 -84.03327368 79.22952689 -73.4375 87.625 C-62.65580635 94.99427302 -52.64497874 99.16419821 -39.5 99 C-38.57509766 99.01160156 -37.65019531 99.02320313 -36.69726562 99.03515625 C-22.24969043 98.97440961 -10.10917772 92.89494446 0.27734375 83.03515625 C12.08199097 70.58478474 16.01112599 56.83275278 15.77734375 40.1484375 C15.30194463 25.87465274 8.30580961 13.74125926 -1.4375 3.625 C-23.70601822 -15.47771918 -59.11691733 -16.23046108 -79.4375 6.625 Z " fill="#0C0C0C" transform="translate(151.4375,65.375)"/>
<path d="M0 0 C2.22224714 3.66017176 2.27512054 7.5445489 2.375 11.75 C2.43107422 13.296875 2.43107422 13.296875 2.48828125 14.875 C2.0625 17.75 2.0625 17.75 0.40234375 20.1015625 C-2.52337574 22.16275386 -4.13354407 22.15206058 -7.6875 22.125 C-13.38788225 22.38878744 -18.03683329 23.54127098 -23.3125 25.5625 C-23.96573242 25.81112793 -24.61896484 26.05975586 -25.29199219 26.31591797 C-28.6131897 27.64186171 -31.62157567 29.12939254 -34.6640625 31.01171875 C-37.9375 32.75 -37.9375 32.75 -39.99462891 32.59716797 C-42.53503035 31.48945334 -43.05994822 30.38925721 -44.296875 27.93359375 C-44.69003906 27.16982422 -45.08320312 26.40605469 -45.48828125 25.61914062 C-46.08189453 24.41547852 -46.08189453 24.41547852 -46.6875 23.1875 C-47.09871094 22.38119141 -47.50992188 21.57488281 -47.93359375 20.74414062 C-48.94735518 18.75198154 -49.94789352 16.75423822 -50.9375 14.75 C-47.46035451 11.13559877 -44.48527465 8.8614668 -39.9375 6.75 C-37.5625 7.3125 -37.5625 7.3125 -35.9375 8.75 C-35.6075 9.74 -35.2775 10.73 -34.9375 11.75 C-40.6875 15.75 -40.6875 15.75 -42.9375 15.75 C-42.6075 16.41 -42.2775 17.07 -41.9375 17.75 C-39.6275 17.09 -37.3175 16.43 -34.9375 15.75 C-34.2775 17.4 -33.6175 19.05 -32.9375 20.75 C-34.5875 22.07 -36.2375 23.39 -37.9375 24.75 C-34.37794831 24.75 -33.65850827 23.85658705 -30.9375 21.75 C-30.2775 21.75 -29.6175 21.75 -28.9375 21.75 C-29.2984375 20.69039062 -29.659375 19.63078125 -30.03125 18.5390625 C-30.50015793 17.15109501 -30.96889931 15.76307125 -31.4375 14.375 C-31.67597656 13.67632812 -31.91445312 12.97765625 -32.16015625 12.2578125 C-33.9375 6.9765625 -33.9375 6.9765625 -33.9375 4.75 C-31.6275 4.09 -29.3175 3.43 -26.9375 2.75 C-25.6175 8.36 -24.2975 13.97 -22.9375 19.75 C-21.2875 19.09 -19.6375 18.43 -17.9375 17.75 C-16.9475 17.75 -15.9575 17.75 -14.9375 17.75 C-15.4325 8.84 -15.4325 8.84 -15.9375 -0.25 C-3.57988411 -2.30960265 -3.57988411 -2.30960265 0 0 Z " fill="#060606" transform="translate(111.9375,26.25)"/>
<path d="M0 0 C4.00600917 2.25338016 7.59476643 4.90075737 11.23046875 7.6953125 C12.97222535 9.05729524 12.97222535 9.05729524 15 10 C13.8979855 13.03053987 12.59471249 15.74601416 10.9375 18.5 C9.28585924 21.30594731 8.39647436 23.72908654 8 27 C8.99 27 9.98 27 11 27 C11.226875 26.360625 11.45375 25.72125 11.6875 25.0625 C13.49036929 20.855805 15.74207806 16.9810729 18 13 C22.95 14.485 22.95 14.485 28 16 C28.495 19.465 28.495 19.465 29 23 C29.66 21.35 30.32 19.7 31 18 C32.98 18 34.96 18 37 18 C35.11380178 25.03645577 33.13072305 32.03359344 31 39 C29.02 38.34 27.04 37.68 25 37 C24.67 35.35 24.34 33.7 24 32 C23.67 33.32 23.34 34.64 23 36 C21.35 36 19.7 36 18 36 C17.04975021 32.30458414 17.04975021 29.69541586 18 26 C17.4740625 27.2375 17.4740625 27.2375 16.9375 28.5 C15 31 15 31 11.625 31.5 C7.82948411 30.97648057 5.86802455 30.5306099 3 28 C1.875 25.4375 1.875 25.4375 2 22 C3.41982032 18.52066009 5.13752973 15.2609341 7 12 C4.66785852 10.79371992 2.50357861 9.8345262 0 9 C-0.2284549 11.24362573 -0.2284549 11.24362573 2 13.125 C2.66 13.74375 3.32 14.3625 4 15 C2.68 15.99 1.36 16.98 0 18 C-1.65 17.01 -3.3 16.02 -5 15 C-5.99 16.32 -6.98 17.64 -8 19 C-9.32 18.34 -10.64 17.68 -12 17 C-12 12.88522189 -10.31136484 11.61348556 -7.6875 8.5 C-6.48673828 7.06140625 -6.48673828 7.06140625 -5.26171875 5.59375 C-3.56253629 3.64511934 -1.8647922 1.78633816 0 0 Z " fill="#090909" transform="translate(67,155)"/>
<path d="M0 0 C1.32 0 2.64 0 4 0 C4.15855469 0.83402344 4.31710938 1.66804688 4.48046875 2.52734375 C6.60024946 12.75147944 9.9469928 22.37450139 18.55078125 28.94921875 C19.46214844 29.52285156 20.37351562 30.09648437 21.3125 30.6875 C22.21613281 31.26886719 23.11976562 31.85023438 24.05078125 32.44921875 C32.67266448 36.98284477 42.7084266 37.37897499 52.13671875 35.3125 C62.17381817 31.95280145 69.06088549 26.37992072 74 17 C76.39365682 11.49382457 78.35128719 6.00059347 79 0 C80.32 0 81.64 0 83 0 C81.86360822 12.14763632 78.53374636 22.79224472 69.3359375 31.25 C58.89885426 39.06908577 47.85660485 42.04917889 35 41 C24.65687136 39.17924215 14.330804 33.48060864 8 25 C3.08395358 17.00034129 -0.13704296 9.59300713 0 0 Z " fill="#090909" transform="translate(71,110)"/>
<path d="M0 0 C3.875 0.875 3.875 0.875 5 2 C5.14426614 6.66845228 5.04208415 11.32865953 5 16 C8.465 9.565 8.465 9.565 12 3 C14.475 3.495 14.475 3.495 17 4 C16.24242424 9.55555556 16.24242424 9.55555556 14.875 12.0625 C13.31536765 15.51597162 14.85430851 18.56292553 16 22 C16.99 22.33 17.98 22.66 19 23 C18.34580901 28.06998019 16.1453591 32.41990777 14 37 C13.67 36.34 13.34 35.68 13 35 C13.33 34.34 13.66 33.68 14 33 C13.2575 33.04125 12.515 33.0825 11.75 33.125 C8.91241048 32.99601866 7.41226062 32.42948778 5 31 C4.505 32.485 4.505 32.485 4 34 C3.34 32.68 2.68 31.36 2 30 C1.34 30.33 0.68 30.66 0 31 C0.33 29.68 0.66 28.36 1 27 C2.134375 26.731875 3.26875 26.46375 4.4375 26.1875 C5.613125 25.795625 6.78875 25.40375 8 25 C8.33 24.01 8.66 23.02 9 22 C7.3954444 22.14148989 5.79136233 22.28835686 4.1875 22.4375 C2.84751953 22.55931641 2.84751953 22.55931641 1.48046875 22.68359375 C-1.12743559 22.93489767 -1.12743559 22.93489767 -4 24 C-3.52662668 20.37421866 -3.04532209 16.74953422 -2.5625 13.125 C-2.42779297 12.09246094 -2.29308594 11.05992188 -2.15429688 9.99609375 C-2.02216797 9.00996094 -1.89003906 8.02382812 -1.75390625 7.0078125 C-1.63345947 6.09660645 -1.5130127 5.18540039 -1.38891602 4.24658203 C-1 2 -1 2 0 0 Z " fill="#A9A9A9" transform="translate(176,93)"/>
<path d="M0 0 C11.25 1.25 11.25 1.25 16 6 C16.07230776 12.47877493 14.2898108 18.4383576 11 24 C8.09261897 25.45369052 6.26033542 25.29639413 3 25 C-1.455 23.02 -1.455 23.02 -6 21 C-4.02 14.07 -2.04 7.14 0 0 Z " fill="#0A0A0A" transform="translate(131,27)"/>
<path d="M0 0 C2.125 0.375 2.125 0.375 4 1 C5.40697017 7.97671158 6.35150733 13.97216188 5 21 C1.37 21 -2.26 21 -6 21 C-5.24872886 24.75635569 -4.75994274 26.83210307 -3 30 C-4.32 29.67 -5.64 29.34 -7 29 C-7 29.99 -7 30.98 -7 32 C-9.59060578 31.64267506 -10.84567494 31.1383604 -12.8125 29.375 C-14.54854489 25.90291022 -14.02080545 23.67489961 -13 20 C-10.94140625 18.7890625 -10.94140625 18.7890625 -9 18 C-9.55880859 17.00419922 -9.55880859 17.00419922 -10.12890625 15.98828125 C-10.60199219 15.10527344 -11.07507812 14.22226563 -11.5625 13.3125 C-12.27599609 12.00732422 -12.27599609 12.00732422 -13.00390625 10.67578125 C-14.14268368 7.61671247 -13.92718689 6.08136961 -13 3 C-10.70703125 3.12109375 -10.70703125 3.12109375 -8 4 C-6.19921875 6.72265625 -6.19921875 6.72265625 -4.6875 10.0625 C-4.17574219 11.16722656 -3.66398437 12.27195312 -3.13671875 13.41015625 C-2.76160156 14.26480469 -2.38648438 15.11945313 -2 16 C-2.02320313 15.01257813 -2.04640625 14.02515625 -2.0703125 13.0078125 C-2.08835937 11.72648437 -2.10640625 10.44515625 -2.125 9.125 C-2.14820313 7.84882812 -2.17140625 6.57265625 -2.1953125 5.2578125 C-2 2 -2 2 0 0 Z " fill="#A9A9A9" transform="translate(46,93)"/>
<path d="M0 0 C2.5271068 2.42132094 2.98062744 3.83723252 3.3984375 7.34765625 C3.39070313 8.57355469 3.38296875 9.79945313 3.375 11.0625 C3.38273437 12.29097656 3.39046875 13.51945313 3.3984375 14.78515625 C3 18 3 18 1.86328125 19.921875 C-2.17405675 22.25794479 -7.52676328 21.14429796 -12 21 C-12.66 14.07 -13.32 7.14 -14 0 C-5.09090909 -1.27272727 -5.09090909 -1.27272727 0 0 Z " fill="#060606" transform="translate(125,174)"/>
<path d="M0 0 C2.4519043 0.82397461 2.4519043 0.82397461 5.4519043 2.82397461 C4.85611652 8.09019066 3.63881634 12.7680548 1.8894043 17.76147461 C1.65543945 18.44532227 1.42147461 19.12916992 1.18041992 19.83374023 C0.60978601 21.49905962 0.03163331 23.16179954 -0.5480957 24.82397461 C-2.1980957 24.49397461 -3.8480957 24.16397461 -5.5480957 23.82397461 C-6.1015721 21.74843813 -6.5480957 19.98031497 -6.5480957 17.82397461 C-9.43996357 16.49092763 -9.43996357 16.49092763 -11.7355957 17.76147461 C-12.3337207 18.11209961 -12.9318457 18.46272461 -13.5480957 18.82397461 C-14.8680957 17.50397461 -16.1880957 16.18397461 -17.5480957 14.82397461 C-15.17697801 12.27887086 -12.77264935 9.76776663 -10.3605957 7.26147461 C-9.68706055 6.53766602 -9.01352539 5.81385742 -8.31958008 5.06811523 C-7.65893555 4.38813477 -6.99829102 3.7081543 -6.31762695 3.00756836 C-5.71539307 2.37391357 -5.11315918 1.74025879 -4.49267578 1.08740234 C-2.5480957 -0.17602539 -2.5480957 -0.17602539 0 0 Z " fill="#050505" transform="translate(159.548095703125,37.176025390625)"/>
<path d="M0 0 C2.61011521 0.95704224 3.77362837 1.58061677 5.11328125 4.0625 C6.25015863 7.82871934 6.33978379 11.41475506 6.3125 15.3125 C6.31121094 16.06781006 6.30992187 16.82312012 6.30859375 17.60131836 C6.21553356 22.98077907 5.47303951 27.15696429 3 32 C1.35 31.67 -0.3 31.34 -2 31 C-4.12957652 25.75272346 -4.36633233 21.07331038 -4.375 15.5 C-4.39949219 14.67113281 -4.42398438 13.84226562 -4.44921875 12.98828125 C-4.47610888 7.35031694 -3.5915785 4.37235644 0 0 Z " fill="#050505" transform="translate(128,72)"/>
<path d="M0 0 C2.40281036 0.96112414 3.73735859 1.57343075 5.11401367 3.80932617 C6.62983829 7.55732681 6.32780474 11.31796411 6.3125 15.3125 C6.32861328 16.14201172 6.34472656 16.97152344 6.36132812 17.82617188 C6.36565991 23.31454279 5.50189645 27.10842937 3 32 C1.68 32 0.36 32 -1 32 C-3.8369033 26.44439771 -4.32756047 21.51512444 -4.375 15.375 C-4.38853516 14.64676025 -4.40207031 13.91852051 -4.41601562 13.16821289 C-4.37559554 8.23640168 -3.68068832 3.68068832 0 0 Z " fill="#050505" transform="translate(95,72)"/>
<path d="M0 0 C3.99926986 2.97088618 6.92118304 6.12948725 10 10 C9.34 11.32 8.68 12.64 8 14 C7.51789063 13.57847656 7.03578125 13.15695313 6.5390625 12.72265625 C5.59160156 11.90087891 5.59160156 11.90087891 4.625 11.0625 C3.68527344 10.24458984 3.68527344 10.24458984 2.7265625 9.41015625 C1.04367666 7.93041376 1.04367666 7.93041376 -1 7 C0.76285325 13.70565872 0.76285325 13.70565872 3.8125 19.875 C5 22 5 22 4.4375 24.25 C2.71848358 26.34271564 1.64093077 26.6478759 -1 27 C-1.680625 25.700625 -1.680625 25.700625 -2.375 24.375 C-4.98089544 20.35203003 -8.79540543 18.57553154 -12.953125 16.39453125 C-13.62859375 15.93433594 -14.3040625 15.47414062 -15 15 C-15 14.01 -15 13.02 -15 12 C-13.68 11.34 -12.36 10.68 -11 10 C-9.02 11.32 -7.04 12.64 -5 14 C-5.66 11.69 -6.32 9.38 -7 7 C-4.69 4.69 -2.38 2.38 0 0 Z " fill="#080808" transform="translate(156,155)"/>
<path d="M0 0 C-0.33 1.32 -0.66 2.64 -1 4 C-3.31 4.33 -5.62 4.66 -8 5 C-8 5.99 -8 6.98 -8 8 C-7.34 7.67 -6.68 7.34 -6 7 C-5.67 7.66 -5.34 8.32 -5 9 C-4.67 8.01 -4.34 7.02 -4 6 C-3.1646875 6.9590625 -3.1646875 6.9590625 -2.3125 7.9375 C0.22066561 10.19680987 1.68341424 10.63149047 5 11 C3.375 17.75 3.375 17.75 0 20 C-4.10043483 20.58146129 -7.80399225 20.62790407 -11.5 18.6875 C-14.65116753 15.14243652 -14.3470801 10.88460548 -14.26171875 6.38671875 C-14 4 -14 4 -12.625 1.375 C-8.54427097 -0.76252473 -4.51359846 -0.31009455 0 0 Z " fill="#DDDDDD" transform="translate(185,115)"/>
<path d="M0 0 C1.37207031 1.45874023 1.37207031 1.45874023 2.578125 3.30859375 C3.01640625 3.97310547 3.4546875 4.63761719 3.90625 5.32226562 C4.3496875 6.02029297 4.793125 6.71832031 5.25 7.4375 C5.70890625 8.13166016 6.1678125 8.82582031 6.640625 9.54101562 C10 14.70505487 10 14.70505487 10 17 C8.02 17.33 6.04 17.66 4 18 C3.67 17.01 3.34 16.02 3 15 C1.68 15.33 0.36 15.66 -1 16 C-1 17.65 -1 19.3 -1 21 C-2.98 21.66 -4.96 22.32 -7 23 C-7.33695862 20.27123692 -7.66968429 17.54206837 -8 14.8125 C-8.09539062 14.04357422 -8.19078125 13.27464844 -8.2890625 12.48242188 C-8.75192894 8.63071189 -9.12467468 4.88829149 -9 1 C-5.54279157 -0.63257065 -3.61828546 -1.39216064 0 0 Z " fill="#0A0A0A" transform="translate(139,170)"/>
<path d="M0 0 C3.90260962 0.06709358 4.81364166 0.11580794 7.875 2.75 C9.69802612 7.8718353 9.60672981 12.19726685 8.1875 17.4375 C5.84274418 20.00207668 4.35382336 20.31882148 0.9609375 20.6640625 C-3.2545763 20.81510697 -5.20104087 20.84513942 -8.8125 18.4375 C-9.5 15.3125 -9.5 15.3125 -9.8125 12.4375 C-5.1875 9.4375 -5.1875 9.4375 -1.8125 9.4375 C-1.4825 10.4275 -1.1525 11.4175 -0.8125 12.4375 C-0.68875 11.633125 -0.565 10.82875 -0.4375 10 C-0.23125 9.154375 -0.025 8.30875 0.1875 7.4375 C0.8475 7.1075 1.5075 6.7775 2.1875 6.4375 C1.23875 6.169375 0.29 5.90125 -0.6875 5.625 C-3.8125 4.4375 -3.8125 4.4375 -5.8125 1.4375 C-4.16013915 -0.21486085 -2.27036456 0.10969551 0 0 Z " fill="#E0E0E0" transform="translate(45.8125,114.5625)"/>
<path d="M0 0 C2.475 0.99 2.475 0.99 5 2 C4.39561204 5.38457255 3.06998635 7.3000178 1 10 C1 10.66 1 11.32 1 12 C1.66 12.33 2.32 12.66 3 13 C3.66 11.68 4.32 10.36 5 9 C6.32 9 7.64 9 9 9 C9.99 10.485 9.99 10.485 11 12 C10.01 13.32 9.02 14.64 8 16 C8.33 16.5775 8.66 17.155 9 17.75 C10 20 10 20 10 24 C8.02 24.99 8.02 24.99 6 26 C1 21 -4 16 -9 11 C-8.06558465 9.72689688 -7.12732889 8.456612 -6.1875 7.1875 C-5.66542969 6.47980469 -5.14335938 5.77210937 -4.60546875 5.04296875 C-3.16871123 3.21468607 -1.68184237 1.60103312 0 0 Z " fill="#0A0A0A" transform="translate(48,49)"/>
<path d="M0 0 C3.8828125 1.78125 3.8828125 1.78125 4.9375 3.75 C5.02882333 7.03763977 3.59648343 9.19018916 2 12 C4.64 10.68 7.28 9.36 10 8 C11.37562854 9.28965176 12.70766393 10.62689293 14 12 C14 12.66 14 13.32 14 14 C13.11957031 14.30292969 12.23914063 14.60585938 11.33203125 14.91796875 C3.95726962 17.28092542 3.95726962 17.28092542 -2.0625 21.875 C-2.701875 22.57625 -3.34125 23.2775 -4 24 C-7.06731977 23.91236229 -7.81352381 23.18647619 -10 21 C-9.81317857 18.19767849 -9.20590568 17.18710931 -7.1171875 15.2890625 C-4.51236038 12.4727734 -3.54518556 9.84773767 -2.25 6.25 C-1.82203125 5.07953125 -1.3940625 3.9090625 -0.953125 2.703125 C-0.63859375 1.81109375 -0.3240625 0.9190625 0 0 Z " fill="#050505" transform="translate(172,47)"/>
<path d="M0 0 C1.02486226 2.04972452 2.03441521 4.08030215 2.9375 6.1875 C3.93434552 8.34395107 3.93434552 8.34395107 7 9 C6.34580901 14.06998019 4.1453591 18.41990777 2 23 C1.67 22.34 1.34 21.68 1 21 C1.33 20.34 1.66 19.68 2 19 C1.2575 19.04125 0.515 19.0825 -0.25 19.125 C-3.08758952 18.99601866 -4.58773938 18.42948778 -7 17 C-7.33 17.99 -7.66 18.98 -8 20 C-8.66 18.68 -9.32 17.36 -10 16 C-10.66 16.33 -11.32 16.66 -12 17 C-11.67 15.68 -11.34 14.36 -11 13 C-9.2984375 12.5978125 -9.2984375 12.5978125 -7.5625 12.1875 C-6.386875 11.795625 -5.21125 11.40375 -4 11 C-3.67 10.01 -3.34 9.02 -3 8 C-4.6045556 8.14148989 -6.20863767 8.28835686 -7.8125 8.4375 C-9.15248047 8.55931641 -9.15248047 8.55931641 -10.51953125 8.68359375 C-13.12743559 8.93489767 -13.12743559 8.93489767 -16 10 C-15.67 8.35 -15.34 6.7 -15 5 C-14.67 5.66 -14.34 6.32 -14 7 C-10.24999436 6.98726653 -6.65954112 6.85821097 -3 6 C-0.6844676 3.12870432 -0.6844676 3.12870432 0 0 Z " fill="#636363" transform="translate(188,107)"/>
<path d="M0 0 C3.85550018 3.63635985 6.86741138 7.41691848 9.8125 11.8125 C10.21919922 12.40998047 10.62589844 13.00746094 11.04492188 13.62304688 C12.03479703 15.07874564 13.01809735 16.53891174 14 18 C12.68 19.32 11.36 20.64 10 22 C6.52519643 18.60543168 3.29123427 15.11183429 0.1875 11.375 C-0.60269531 10.43398438 -1.39289062 9.49296875 -2.20703125 8.5234375 C-4 6 -4 6 -4 3 C-2 1.3125 -2 1.3125 0 0 Z " fill="#080808" transform="translate(57,42)"/>
<path d="M0 0 C2 2 2 2 2.4375 5.4375 C3.01122666 9.07110221 3.31154521 9.77910256 6 12 C6 12.66 6 13.32 6 14 C4.68 13.67 3.36 13.34 2 13 C2 13.99 2 14.98 2 16 C-0.59060578 15.64267506 -1.84567494 15.1383604 -3.8125 13.375 C-5.54854489 9.90291022 -5.02080545 7.67489961 -4 4 C-1.9375 2.5625 -1.9375 2.5625 0 2 C0 1.34 0 0.68 0 0 Z " fill="#A6A6A6" transform="translate(37,109)"/>
<path d="M0 0 C2 3 2 3 2 5 C3.32 5.33 4.64 5.66 6 6 C5.34 7.98 4.68 9.96 4 12 C3.236875 11.79375 2.47375 11.5875 1.6875 11.375 C-1.21885944 10.66608797 -1.21885944 10.66608797 -4 13 C-3.979375 12.05125 -3.95875 11.1025 -3.9375 10.125 C-3.77448174 7.09333717 -3.77448174 7.09333717 -5 5 C-3.68 5 -2.36 5 -1 5 C-0.67 3.35 -0.34 1.7 0 0 Z " fill="#131313" transform="translate(46,71)"/>
<path d="M0 0 C2 3 2 3 2 5 C3.32 5.33 4.64 5.66 6 6 C5.01 6.33 4.02 6.66 3 7 C3.33 8.65 3.66 10.3 4 12 C3.236875 11.79375 2.47375 11.5875 1.6875 11.375 C-1.21885944 10.66608797 -1.21885944 10.66608797 -4 13 C-3.95875 12.05125 -3.9175 11.1025 -3.875 10.125 C-3.65026182 6.89755144 -3.65026182 6.89755144 -6 5 C-4.35 5 -2.7 5 -1 5 C-0.67 3.35 -0.34 1.7 0 0 Z " fill="#0E0E0E" transform="translate(171,139)"/>
<path d="M0 0 C2 2 2 2 2 5 C3.65 5 5.3 5 7 5 C6.34 5.66 5.68 6.32 5 7 C4.83318891 10.08347826 4.83318891 10.08347826 5 13 C4.236875 12.649375 3.47375 12.29875 2.6875 11.9375 C-0.04759379 10.67639116 -0.04759379 10.67639116 -3 12 C-2.67 10.35 -2.34 8.7 -2 7 C-2.99 6.67 -3.98 6.34 -5 6 C-3.68 5.67 -2.36 5.34 -1 5 C-0.67 3.35 -0.34 1.7 0 0 Z " fill="#0E0E0E" transform="translate(52,139)"/>
<path d="M0 0 C0.268125 0.5775 0.53625 1.155 0.8125 1.75 C2.76943809 5.4578827 3.92938213 7.64312738 8 9 C7.34 7.35 6.68 5.7 6 4 C9.465 5.485 9.465 5.485 13 7 C13 6.34 13 5.68 13 5 C13.66 5 14.32 5 15 5 C15 7.64 15 10.28 15 13 C14.34 12.34 13.68 11.68 13 11 C13 10.01 13 9.02 13 8 C12.236875 8.495 11.47375 8.99 10.6875 9.5 C8 11 8 11 5 11 C5.33 12.32 5.66 13.64 6 15 C2.66475716 12.30004151 1.43648692 8.96744005 0 5 C-0.1875 2.0625 -0.1875 2.0625 0 0 Z " fill="#434343" transform="translate(31,116)"/>
<path d="M0 0 C2 3 2 3 2 5 C3.32 5.33 4.64 5.66 6 6 C5.01 6.33 4.02 6.66 3 7 C3.33 8.65 3.66 10.3 4 12 C3.236875 11.79375 2.47375 11.5875 1.6875 11.375 C-1.21885944 10.66608797 -1.21885944 10.66608797 -4 13 C-3.979375 12.05125 -3.95875 11.1025 -3.9375 10.125 C-3.77448174 7.09333717 -3.77448174 7.09333717 -5 5 C-3.68 5 -2.36 5 -1 5 C-0.67 3.35 -0.34 1.7 0 0 Z " fill="#0C0C0C" transform="translate(175,71)"/>
<path d="M0 0 C1.66611905 -0.042721 3.33382885 -0.04063832 5 0 C6 1 6 1 6.09765625 2.84765625 C6.06510417 4.8984375 6.03255208 6.94921875 6 9 C4.35 9.33 2.7 9.66 1 10 C-0.1577506 6.52674819 -0.06866652 3.63932552 0 0 Z " fill="#EDEDED" transform="translate(102,33)"/>
<path d="M0 0 C1.67542976 0.28604898 3.34385343 0.61781233 5 1 C4.5020163 4.73487777 4.12508244 6.81237635 2 10 C0.68 10 -0.64 10 -2 10 C-1.85950482 8.52031676 -1.71245174 7.04125484 -1.5625 5.5625 C-1.48128906 4.73878906 -1.40007812 3.91507813 -1.31640625 3.06640625 C-1 1 -1 1 0 0 Z " fill="#F2F2F2" transform="translate(135,36)"/>
<path d="M0 0 C1.32 0 2.64 0 4 0 C5.4783226 2.95664519 5.06032783 5.74229737 5 9 C3.35 9.33 1.7 9.66 0 10 C-0.19412181 8.52168779 -0.38012131 7.04230684 -0.5625 5.5625 C-0.66691406 4.73878906 -0.77132812 3.91507813 -0.87890625 3.06640625 C-0.91886719 2.38449219 -0.95882812 1.70257813 -1 1 C-0.67 0.67 -0.34 0.34 0 0 Z " fill="#E2E2E2" transform="translate(118,180)"/>
<path d="M0 0 C0.66 0 1.32 0 2 0 C2.37254569 3.35291118 2.31050198 4.6038423 0.1875 7.3125 C-2 9 -2 9 -5 9 C-3.50079488 5.88626628 -1.91847864 2.87771795 0 0 Z " fill="#ECECEC" transform="translate(191,116)"/>
<path d="M0 0 C4.02550319 1.3418344 4.88285636 3.4227573 7 7 C7 7.66 7 8.32 7 9 C4.28902773 8.62607279 3.17999533 8.18642373 1.25 6.1875 C0 4 0 4 0 0 Z " fill="#F1F1F1" transform="translate(32,116)"/>
<path d="M0 0 C2.49361571 1.20381448 4.68143083 2.45428722 7 4 C6.34 5.32 5.68 6.64 5 8 C3.02 6.35 1.04 4.7 -1 3 C-0.67 2.01 -0.34 1.02 0 0 Z " fill="#E7E7E7" transform="translate(67,163)"/>
<path d="M0 0 C1 3 1 3 -0.4375 6.1875 C-1.2109375 7.5796875 -1.2109375 7.5796875 -2 9 C-2.33 8.34 -2.66 7.68 -3 7 C-2.67 6.34 -2.34 5.68 -2 5 C-2.763125 5.061875 -3.52625 5.12375 -4.3125 5.1875 C-7 5 -7 5 -8.8125 3.5 C-9.204375 3.005 -9.59625 2.51 -10 2 C-8.68 2 -7.36 2 -6 2 C-6 2.66 -6 3.32 -6 4 C-4.35 3.67 -2.7 3.34 -1 3 C-0.67 2.01 -0.34 1.02 0 0 Z " fill="#212121" transform="translate(192,121)"/>
<path d="M0 0 C1.32 0.66 2.64 1.32 4 2 C3.34 3.32 2.68 4.64 2 6 C0.68 5.67 -0.64 5.34 -2 5 C-1.125 1.125 -1.125 1.125 0 0 Z " fill="#202020" transform="translate(167,167)"/>
<path d="M0 0 C2.97837763 2.55289511 4.29394232 5.51370822 6 9 C6.66 9.66 7.32 10.32 8 11 C5.53471865 10.60935585 4.26692012 10.26760629 2.48046875 8.4765625 C2.05378906 7.86554687 1.62710938 7.25453125 1.1875 6.625 C0.74792969 6.01914062 0.30835937 5.41328125 -0.14453125 4.7890625 C-1 3 -1 3 0 0 Z " fill="#DBDBDB" transform="translate(65,49)"/>
<path d="M0 0 C2 1 2 1 3 3 C0.6875 4.5625 0.6875 4.5625 -2 6 C-2.99 5.67 -3.98 5.34 -5 5 C-5 4.34 -5 3.68 -5 3 C-2.625 1.3125 -2.625 1.3125 0 0 Z " fill="#DBDBDB" transform="translate(74,39)"/>
<path d="M0 0 C0.99 0.33 1.98 0.66 3 1 C3.6875 3.0625 3.6875 3.0625 4 5 C3.01 5.33 2.02 5.66 1 6 C0 5 0 5 -0.0625 2.4375 C-0.041875 1.633125 -0.02125 0.82875 0 0 Z " fill="#D5D5D5" transform="translate(136,178)"/>
<path d="M0 0 C0.66 0 1.32 0 2 0 C1.34 1.98 0.68 3.96 0 6 C-0.99 5.67 -1.98 5.34 -3 5 C-1.125 1.125 -1.125 1.125 0 0 Z " fill="#EDEDED" transform="translate(156,46)"/>
</svg>
